<svg xmlns="http://www.w3.org/2000/svg" xmlns:xlink="http://www.w3.org/1999/xlink" xmlns:sketch="http://www.bohemiancoding.com/sketch/ns" width="79px" height="27px" viewBox="0 0 79 27" version="1.1">
    <!-- Generator: Sketch 3.2.2 (9983) - http://www.bohemiancoding.com/sketch -->
    <title>cards</title>
    <desc>Created with Sketch.</desc>
    <defs/>
    <g id="Page-1" stroke="none" stroke-width="1" fill="none" fill-rule="evenodd" sketch:type="MSPage">
        <g id="&#1053;&#1077;&#1072;&#1082;&#1090;&#1080;&#1074;&#1085;&#1099;&#1077;-2" sketch:type="MSLayerGroup" fill="#000000">
            <g id="&#1050;&#1072;&#1088;&#1090;&#1099;" transform="translate(10.000000, 5.000000)" sketch:type="MSShapeGroup">
                <g id="Visa-2">
                    <path d="M9.8 13.3 L11.2 4.7 L13.4 4.7 L12 13.3 L9.8 13.3 " id="Fill-2"/>
                    <path d="M20.2 4.9 C19.7 4.7 19.1 4.5 18.2 4.5 C16 4.5 14.4 5.7 14.4 7.4 C14.4 8.6 15.5 9.3 16.4 9.7 C17.2 10.1 17.5 10.4 17.5 10.8 C17.5 11.4 16.8 11.6 16.2 11.6 C15.3 11.6 14.8 11.5 14.1 11.2 L13.8 11 L13.5 13 C14 13.2 14.9 13.4 16 13.4 C18.3 13.4 19.8 12.3 19.9 10.5 C19.9 9.5 19.3 8.7 18 8.1 C17.2 7.7 16.7 7.5 16.7 7.1 C16.7 6.7 17.1 6.3 18 6.3 C18.7 6.3 19.3 6.5 19.7 6.6 L19.9 6.7 L20.2 4.9 " id="Fill-3"/>
                    <path d="M26 4.7 L24.2 4.7 C23.7 4.7 23.3 4.8 23 5.4 L19.7 13.3 L22.1 13.3 C22.1 13.3 22.5 12.2 22.5 12 C22.8 12 25.1 12 25.4 12 C25.5 12.3 25.7 13.3 25.7 13.3 L27.8 13.3 L26 4.7 M23.2 10.2 C23.4 9.7 24.1 7.8 24.1 7.8 C24.1 7.8 24.3 7.3 24.4 7 L24.5 7.7 C24.5 7.7 25 9.8 25 10.2 L23.2 10.2 " id="Fill-4"/>
                    <path d="M7.9 4.7 L5.7 10.6 L5.5 9.4 C5.1 8 3.8 6.5 2.4 5.7 L4.4 13.3 L6.8 13.3 L10.3 4.7 L7.9 4.7 " id="Fill-5"/>
                    <path d="M3.7 4.7 L0 4.7 L0 4.8 C2.8 5.6 4.7 7.3 5.5 9.4 L4.7 5.4 C4.6 4.8 4.2 4.7 3.7 4.7 " id="Fill-6"/>
                </g>
                <path d="M60 8.5 C60 13.2 56.2 17 51.5 17 C49.5585846 17 47.8 16.3 46.3 15.2 C44.8880699 16.3 43.1 17 41.1 17 C36.4551961 17 32.6 13.2 32.6 8.5 C32.6470588 3.8 36.5 0 41.1 0 C43.0882843 0 44.9 0.7 46.3 1.8 C47.758799 0.7 49.6 0 51.5 0 C56.1916728 0 60 3.8 60 8.5 L60 8.5 Z M51.5110907 0.8 C49.7889951 0.8 48.2 1.3 46.9 2.3 C48.0798162 3.4 48.9 4.8 49.4 6.4 L48.5660907 6.4 C48.1630147 5 47.4 3.7 46.3 2.8 C45.2719608 3.7 44.5 5 44.1 6.4 L43.2940012 6.4 C43.7065748 4.8 44.6 3.4 45.7 2.3 C44.4477635 1.3 42.9 0.8 41.1 0.8 C36.8677696 0.8 33.4 4.2 33.4 8.5 C33.4076225 12.8 36.9 16.2 41.1 16.2 C42.8586336 16.2 44.4 15.7 45.7 14.7 C44.6367647 13.7 43.8 12.4 43.4 10.9 L44.1683456 10.9 C44.5909865 12.2 45.3 13.3 46.3 14.2 C47.3057659 13.3 48.1 12.2 48.5 10.9 L49.2749877 10.9 C48.8369608 12.4 48 13.7 46.9 14.7 C48.1992953 15.7 49.8 16.2 51.5 16.2 C55.7790993 16.2 59.2 12.8 59.2 8.5 C59.2392463 4.2 55.8 0.8 51.5 0.8 L51.5110907 0.8 Z M38.0078554 6.7 L36.7703248 6.7 L35.9970343 9 L35.9647426 6.7 L34.8180086 6.7 L34.1953493 10.4 L34.9416667 10.4 L35.4211029 7.5 L35.4879657 10.4 L36.0316054 10.4 L37.0506924 7.5 L36.5940502 10.4 L37.3912745 10.4 L38.0078554 6.7 L38.0078554 6.7 Z M39.4900429 9 C39.4062745 9 39.4 9 39.3 9 C38.8599755 9 38.6 9.2 38.6 9.5 C38.6320343 9.7 38.7 9.8 38.9 9.8 C39.2419669 9.8 39.5 9.5 39.5 9 L39.4900429 9 Z M40.0693934 10.4 L39.4087439 10.4 L39.4241299 10.1 C39.222402 10.3 39 10.4 38.6 10.4 C38.1562071 10.4 37.9 10.1 37.9 9.6 C37.8614032 8.9 38.4 8.4 39.3 8.4 C39.3504289 8.4 39.5 8.4 39.6 8.5 C39.6095221 8.4 39.6 8.3 39.6 8.3 C39.6156005 8.1 39.5 8 39.1 8 C38.7150429 8 38.4 8.1 38.3 8.1 C38.2696078 8.1 38.4 7.4 38.4 7.4 C38.7686091 7.3 39 7.3 39.3 7.3 C40.0101287 7.3 40.4 7.6 40.4 8.2 C40.3727451 8.3 40.3 8.5 40.3 8.8 C40.2380699 9.2 40.1 10.2 40.1 10.4 L40.0693934 10.4 Z M50.4811765 6.6 C49.4248591 6.6 48.7 7.5 48.7 8.8 C48.6861397 9.8 49.2 10.4 50.1 10.4 C50.2990135 10.4 50.5 10.4 50.8 10.3 L50.9224326 9.5 C50.6589706 9.6 50.4 9.7 50.2 9.7 C49.7821569 9.7 49.5 9.3 49.5 8.8 C49.502549 7.9 49.9 7.4 50.5 7.4 C50.7351409 7.4 50.9 7.4 51.2 7.6 L51.3568505 6.8 C51.2400306 6.7 50.8 6.6 50.5 6.6 L50.4811765 6.6 Z M52.7782537 9 C52.6952451 9 52.7 9 52.6 9 C52.1479963 9 51.9 9.2 51.9 9.5 C51.9192953 9.7 52 9.8 52.2 9.8 C52.5301777 9.8 52.8 9.5 52.8 9 L52.7782537 9 Z M53.3576042 10.4 L52.6979044 10.4 L52.7131005 10.1 C52.5106127 10.3 52.2 10.4 51.9 10.4 C51.4449877 10.4 51.1 10.1 51.1 9.6 C51.1484743 8.9 51.7 8.4 52.5 8.4 C52.6384498 8.4 52.8 8.4 52.9 8.5 C52.8975429 8.4 52.9 8.3 52.9 8.3 C52.9036213 8.1 52.8 8 52.4 8 C52.0030637 8 51.7 8.1 51.6 8.1 C51.5576287 8.1 51.7 7.4 51.7 7.4 C52.0573897 7.3 52.3 7.3 52.6 7.3 C53.2983395 7.3 53.7 7.6 53.7 8.2 C53.6617157 8.3 53.6 8.5 53.6 8.8 C53.5270404 9.2 53.4 10.2 53.4 10.4 L53.3576042 10.4 Z M43.9869424 9.7 C43.9337561 9.7 43.9 9.7 43.8 9.7 C43.5829167 9.7 43.5 9.6 43.5 9.5 C43.5008578 9.4 43.6 8.7 43.7 8.1 L44.1326348 8.1 L44.2410968 7.4 L43.833652 7.4 L43.9259681 6.9 L43.1340625 6.9 C43.1340625 6.9 42.8 8.7 42.8 9 C42.7385846 9.3 42.7 9.6 42.7 9.8 C42.6791299 10.2 42.9 10.4 43.3 10.4 C43.4932598 10.4 43.7 10.4 43.9 10.3 L43.9869424 9.7 L43.9869424 9.7 Z M46.4247733 10.3 C46.1520037 10.4 45.9 10.4 45.6 10.4 C44.7237623 10.4 44.3 10 44.3 9.1 C44.2614216 8 44.9 7.3 45.6 7.3 C46.301875 7.3 46.7 7.7 46.7 8.4 C46.7195772 8.6 46.7 8.8 46.6 9.1 L45.0440196 9.1 C44.9906434 9.6 45.3 9.8 45.7 9.8 C46.0163787 9.8 46.3 9.7 46.6 9.6 L46.4247733 10.3 L46.4247733 10.3 Z M45.9791483 8.5 C45.984277 8.5 46.1 8 45.6 8 C45.3583885 8 45.2 8.2 45.1 8.5 L45.9791483 8.5 L45.9791483 8.5 Z M40.6819853 8.3 C40.6819853 8.7 40.9 9 41.3 9.2 C41.6112255 9.3 41.7 9.4 41.7 9.5 C41.6611826 9.7 41.5 9.8 41.2 9.8 C40.9655821 9.8 40.7 9.7 40.5 9.6 C40.4888051 9.6 40.4 10.3 40.4 10.3 C40.5607966 10.4 40.7 10.4 41.2 10.4 C42.0498223 10.4 42.4 10.1 42.4 9.4 C42.4378922 9 42.3 8.8 41.9 8.6 C41.5424632 8.4 41.5 8.4 41.5 8.2 C41.5035233 8.1 41.6 8 41.9 8 C42.0505821 8 42.3 8 42.5 8 L42.5801654 7.3 C42.3734988 7.3 42.1 7.3 41.9 7.3 C40.9868566 7.3 40.7 7.7 40.7 8.3 L40.6819853 8.3 Z M57.8467157 10.4 L57.0920404 10.4 L57.1302206 10.1 C56.9108272 10.3 56.7 10.4 56.4 10.4 C55.8155699 10.4 55.4 9.9 55.4 9.2 C55.4328186 8.2 56 7.3 56.7 7.3 C57.0379044 7.3 57.3 7.4 57.5 7.7 L57.667212 6.7 L58.4532292 6.7 L57.8467157 10.4 L57.8467157 10.4 Z M56.6703493 9.7 C57.0413235 9.7 57.3 9.3 57.3 8.7 C57.303076 8.3 57.2 8.1 56.9 8.1 C56.5185784 8.1 56.3 8.5 56.3 9.1 C56.2619547 9.5 56.4 9.7 56.7 9.7 L56.6703493 9.7 Z M54.2114338 7.4 C54.1115196 8.3 53.9 9.2 53.8 10.2 L53.7601103 10.4 L54.5561949 10.4 C54.8416912 8.5 54.9 8.2 55.4 8.2 C55.4284498 7.8 55.6 7.5 55.7 7.3 C55.3262561 7.3 55.1 7.5 54.9 7.8 C54.916152 7.7 55 7.5 54.9 7.4 L54.2114338 7.4 L54.2114338 7.4 Z M47.2447917 7.4 C47.1446875 8.3 47 9.2 46.8 10.2 L46.7923284 10.4 L47.5893627 10.4 C47.8748591 8.5 47.9 8.2 48.4 8.2 C48.4618076 7.8 48.6 7.5 48.7 7.3 C48.3601838 7.3 48.2 7.5 47.9 7.8 C47.94856 7.7 48 7.5 48 7.4 L47.2447917 7.4 L47.2447917 7.4 Z" id="mc_brand_outline_eps-2"/>
            </g>
        </g>
    </g>
</svg>
