<svg xmlns="http://www.w3.org/2000/svg" xmlns:xlink="http://www.w3.org/1999/xlink" xmlns:sketch="http://www.bohemiancoding.com/sketch/ns" width="16.8px" viewBox="0 0 14 14" version="1.1">
    <title>inst</title>
    <defs/>
    <g id="Page-1" stroke="none" stroke-width="1" fill="none" fill-rule="evenodd" sketch:type="MSPage">
        <g id="networklinks" sketch:type="MSLayerGroup" transform="translate(-147.000000, -15.000000)" fill="#000000">
            <g id="inst" sketch:type="MSShapeGroup">
                <path d="M159.4 29 L148.6 29 C147.7 29 147 28.3 147 27.4 L147 16.6 C147 15.7 147.7 15 148.6 15 L159.4 15 C160.3 15 161 15.7 161 16.6 L161 27.4 C161 28.3 160.3 29 159.4 29 L159.4 29 ZM154 19.3 C152.5 19.3 151.3 20.5 151.3 22 C151.3 23.5 152.5 24.7 154 24.7 C155.5 24.7 156.7 23.5 156.7 22 C156.7 20.5 155.5 19.3 154 19.3 L154 19.3 ZM159.4 17.2 C159.4 16.9 159.1 16.6 158.8 16.6 L157.2 16.6 C156.9 16.6 156.7 16.9 156.7 17.2 L156.7 18.8 C156.7 19.1 156.9 19.3 157.2 19.3 L158.8 19.3 C159.1 19.3 159.4 19.1 159.4 18.8 L159.4 17.2 ZM159.4 20.9 L158.2 20.9 C158.3 21.3 158.3 21.6 158.3 22 C158.3 24.4 156.4 26.3 154 26.3 C151.6 26.3 149.7 24.4 149.7 22 C149.7 21.6 149.7 21.3 149.8 20.9 L148.6 20.9 L148.6 26.8 C148.6 27.1 148.9 27.4 149.2 27.4 L158.8 27.4 C159.1 27.4 159.4 27.1 159.4 26.8 L159.4 20.9 Z" id="&#1048;&#1085;&#1089;&#1090;&#1072;&#1075;&#1088;&#1072;&#1084;-2"/>
            </g>
        </g>
    </g>
</svg>
