<?xml version="1.0" encoding="UTF-8" standalone="no"?>
<svg width="1440px" height="56px" viewBox="0 0 1440 56" version="1.1" xmlns="http://www.w3.org/2000/svg" xmlns:xlink="http://www.w3.org/1999/xlink" xmlns:sketch="http://www.bohemiancoding.com/sketch/ns">
    <!-- Generator: Sketch 3.2.2 (9983) - http://www.bohemiancoding.com/sketch -->
    <title>Untitled</title>
    <desc>Created with Sketch.</desc>
    <defs></defs>
    <g id="Page-1" stroke="none" stroke-width="1" fill="none" fill-rule="evenodd" sketch:type="MSPage">
        <g id="milkbottom" sketch:type="MSLayerGroup" transform="translate(0.000000, 13.000000)" fill="#FFFFFF">
            <path d="M1126.79233,0 L286.818573,0 C284.512606,0 0.640625,0.00907787085 0.640625,0.00907787085 L0.640625,14.0247736 C0.640625,14.0247736 27.846072,30.9405814 65.8242188,36.6542504 C103.212766,42.2792164 141.463867,32.4295339 167.217773,29.5815988 C192.97168,26.7336638 217.386719,22.9999996 236.779297,29.5815988 C246.685547,32.5797319 259.64826,29.5815985 259.848779,29.5815985 C296.142703,26.9832148 329.529104,45.371776 366.123807,40.8745736 C383.568953,38.7758791 399.810985,32.9794848 416.253537,27.7827175 C433.397905,22.3860745 450.542272,18.488499 468.789494,18.3885612 C505.384197,17.9888099 540.675527,28.4822823 576.668674,32.5797334 C595.316933,34.7783658 613.664415,34.5784901 632.412934,32.5797334 C675.92554,27.9825931 675.624761,31.1806038 689.861605,31.5803551 C740.492632,32.9794848 742.197043,44.9720247 784.506535,45.971403 C802.25246,46.3711544 823.908503,42.5735167 867.120331,34.9782414 C916.849023,26.28365 915.044353,24.1849555 940.911294,20.28738 C965.073824,16.6896181 982.920008,15.9900532 997.45763,16.5896802 C1018.21134,17.3891829 1016.10589,18.6883747 1057.91408,21.3866962 C1102.83032,24.2848933 1161.06724,9.44439623 1183.37627,16.5896806 C1203.39059,22.9999996 1208.83974,22.6752486 1217.06241,21.3866958 C1225.28508,20.098143 1238.53543,14.3190048 1258.71528,14.0247736 C1278.89514,13.7305423 1290.0451,16.5896806 1305.43781,20.098143 L1334.70931,28.3937646 C1334.70931,28.3937646 1374.07704,36.6542504 1384.232,36.6542511 C1394.38695,36.6542518 1427.69399,32.5797319 1441,20.098143 L1441,0.00907787105 L1392.181,0.00907787085" id="Shape" sketch:type="MSShapeGroup" transform="translate(720.820312, 23.000000) scale(1, -1) translate(-720.820312, -23.000000) "></path>
        </g>
    </g>
</svg>