<?xml version="1.0" encoding="UTF-8" standalone="no"?>
<svg width="1444px" height="63px" viewBox="0 0 1444 63" version="1.1" xmlns="http://www.w3.org/2000/svg" xmlns:xlink="http://www.w3.org/1999/xlink" xmlns:sketch="http://www.bohemiancoding.com/sketch/ns">
    <!-- Generator: Sketch 3.2.2 (9983) - http://www.bohemiancoding.com/sketch -->
    <title>Shape</title>
    <desc>Created with Sketch.</desc>
    <defs></defs>
    <g id="Page-1" stroke="none" stroke-width="1" fill="none" fill-rule="evenodd" sketch:type="MSPage">
        <g id="milkbank" sketch:type="MSLayerGroup" fill="#FFFFFF">
            <path d="M1443.1,27.6 C1435,23.6 1424.3,18.4 1411.6,12.6 C1408.5,11.2 1406,10.1 1405.6,9.9 C1395.7,5.5 1346.3,-10.4 1275.1,12.6 C1250,20.7 1230.4,30.9 1204.4,33.8 C1164.6,38.2 1128.2,43.4 1088.1,36.7 C1052.5,30.8 1018,18.6 982,15.5 C899.4,8.4 819,49.8 736.2,46.7 C672.4,44.3 611.1,15.5 547.3,17.5 C514,18.6 481.6,28 448.4,30.4 C406.7,33.4 364.6,25.2 323,29.6 C284.2,33.7 245.8,48.6 207.1,43 C177.4,38.7 150,22.6 120.1,20.5 C79.8,17.7 39.2,40.7 0.1,30.5 C0.1,41 0.2,51.5 0.2,62 C0.2,62.3 682.9,62 745,62 C976.7,62 1208.5,62 1440.2,62.1" id="Shape" sketch:type="MSShapeGroup"></path>
        </g>
    </g>
</svg>