<svg xmlns="http://www.w3.org/2000/svg" xmlns:xlink="http://www.w3.org/1999/xlink" xmlns:sketch="http://www.bohemiancoding.com/sketch/ns" width="47px" height="47px" viewBox="0 0 47 47" version="1.1">
    <!-- Generator: Sketch 3.2.2 (9983) - http://www.bohemiancoding.com/sketch -->
    <title>search</title>
    <desc>Created with Sketch.</desc>
    <defs/>
    <g id="Page-1" stroke="none" stroke-width="1" fill="none" fill-rule="evenodd" sketch:type="MSPage">
        <g id="search" sketch:type="MSLayerGroup" fill="#FFFFFF">
            <g id="XMLID_13_" sketch:type="MSShapeGroup">
                <g id="XMLID_10_">
                    <path d="M40.902 46.7 L29.967 35.8 C26.97 37.7 23.4 38.9 19.5 38.9 C8.984 38.9 0.5 30.3 0.5 19.8 C0.461 9.3 9 0.7 19.5 0.7 C30.044 0.7 38.6 9.3 38.6 19.8 C38.583 23.5 37.5 26.9 35.8 29.8 L46.768 40.8 C47.351 41.4 46.9 42.8 45.7 44 L44.052 45.6 C42.882 46.8 41.5 47.3 40.9 46.7 L40.902 46.7 Z M32.249 19.8 C32.249 12.8 26.6 7.1 19.5 7.1 C12.489 7.1 6.8 12.8 6.8 19.8 C6.777 26.8 12.5 32.5 19.5 32.5 C26.554 32.5 32.2 26.8 32.2 19.8 L32.249 19.8 Z" id="Shape"/>
                </g>
            </g>
        </g>
    </g>
</svg>
