<svg xmlns="http://www.w3.org/2000/svg" xmlns:xlink="http://www.w3.org/1999/xlink" xmlns:sketch="http://www.bohemiancoding.com/sketch/ns" width="20.16px" viewBox="0 0 17 14" version="1.1">
    <title>twi</title>
    <defs/>
    <g id="Page-1" stroke="none" stroke-width="1" fill="none" fill-rule="evenodd" sketch:type="MSPage">
        <g id="networklinks" sketch:type="MSLayerGroup" transform="translate(-58.000000, -15.000000)" fill="#000000">
            <g id="twi" sketch:type="MSShapeGroup">
                <path d="M63.1 28.3 C61.2 28.3 59.5 27.7 58 26.8 C58.3 26.8 58.5 26.8 58.8 26.8 C60.4 26.8 61.8 26.3 62.9 25.4 C61.5 25.3 60.2 24.4 59.8 23 C60 23.1 60.2 23.1 60.4 23.1 C60.8 23.1 61 23.1 61.3 23 C59.8 22.7 58.7 21.3 58.7 19.7 C58.7 19.7 58.7 19.7 58.7 19.7 C59.1 19.9 59.6 20.1 60.2 20.1 C59.3 19.5 58.7 18.5 58.7 17.3 C58.7 16.7 58.8 16.1 59.1 15.6 C60.8 17.6 63.2 19 66 19.1 C65.9 18.9 65.9 18.6 65.9 18.3 C65.9 16.5 67.4 15 69.3 15 C70.2 15 71.1 15.4 71.7 16.1 C72.4 15.9 73.2 15.6 73.8 15.2 C73.6 16 73 16.7 72.3 17.1 C73 17 73.7 16.8 74.2 16.6 C73.8 17.2 73.2 17.8 72.6 18.3 C72.6 18.4 72.6 18.6 72.6 18.7 C72.6 23.2 69.2 28.3 63.1 28.3 " id="&#1058;&#1074;&#1080;"/>
            </g>
        </g>
    </g>
</svg>
