<svg xmlns="http://www.w3.org/2000/svg" xmlns:xlink="http://www.w3.org/1999/xlink" xmlns:sketch="http://www.bohemiancoding.com/sketch/ns" width="20.4px" height="12px" viewBox="0 0 17 10" version="1.1">
    <title>vk</title>
    <defs/>
    <g id="Page-1" stroke="none" stroke-width="1" fill="none" fill-rule="evenodd" sketch:type="MSPage">
        <g id="networklinks" sketch:type="MSLayerGroup" transform="translate(-14.000000, -17.000000)" fill="#000000">
            <g id="vk" sketch:type="MSShapeGroup">
                <path d="M21.9506601 26.5 L22.9219395 26.5 C22.9219395 26.5 23.2 26.5 23.4 26.3 C23.5030821 26.2 23.5 25.9 23.5 25.9 C23.4986761 25.9 23.5 24.6 24.1 24.4 C24.6808744 24.2 25.4 25.7 26.3 26.2 C26.8717751 26.7 27.3 26.6 27.3 26.6 L29.5082604 26.5 C29.5082604 26.5 30.6 26.5 30.1 25.5 C30.0610783 25.5 29.8 24.9 28.5 23.6 C27.1307028 22.3 27.3 22.5 29 20.3 C29.9504689 18.9 30.3 18 30.2 17.7 C30.1059973 17.3 29.4 17.4 29.4 17.4 L26.9283672 17.5 C26.9283672 17.5 26.7 17.4 26.6 17.5 C26.4815238 17.6 26.4 17.8 26.4 17.8 C26.3972363 17.8 26 18.8 25.5 19.8 C24.4067829 21.7 24 21.8 23.8 21.6 C23.3800557 21.4 23.5 20.5 23.5 19.9 C23.4834551 18.1 23.8 17.3 23 17.1 C22.6890476 17.1 22.5 17 21.8 17 C20.9422438 17 20.2 17 19.8 17.2 C19.508671 17.4 19.3 17.7 19.4 17.7 C19.5864351 17.7 20 17.8 20.1 18.1 C20.3964069 18.4 20.4 19.2 20.4 19.2 C20.387652 19.2 20.5 21.4 20.1 21.7 C19.7223364 21.8 19.3 21.5 18.3 19.7 C17.8035817 18.8 17.4 17.9 17.4 17.9 C17.4282652 17.9 17.4 17.7 17.2 17.6 C17.0703441 17.5 16.9 17.4 16.9 17.4 L14.5296477 17.4 C14.5296477 17.4 14.2 17.4 14.1 17.6 C13.939178 17.7 14 18 14 18 C14.044008 18 15.9 22.4 17.9 24.6 C19.8076538 26.7 22 26.5 22 26.5" id="&#1042;&#1050;"/>
            </g>
        </g>
    </g>
</svg>
