<svg xmlns="http://www.w3.org/2000/svg" xmlns:xlink="http://www.w3.org/1999/xlink" xmlns:sketch="http://www.bohemiancoding.com/sketch/ns" width="79px" height="27px" viewBox="0 0 79 27" version="1.1">
    <!-- Generator: Sketch 3.2.2 (9983) - http://www.bohemiancoding.com/sketch -->
    <title>yamoney</title>
    <desc>Created with Sketch.</desc>
    <defs/>
    <g id="Page-1" stroke="none" stroke-width="1" fill="none" fill-rule="evenodd" sketch:type="MSPage">
        <g id="&#1053;&#1077;&#1072;&#1082;&#1090;&#1080;&#1074;&#1085;&#1099;&#1077;-2" sketch:type="MSLayerGroup" transform="translate(-90.000000, 0.000000)" fill="#000000">
            <g id="yandex_money-2" sketch:type="MSShapeGroup">
                <path d="M107.5 13.4 L106.7 13.4 C105.5 13.4 104.3 12.4 104.3 10.1 C104.3 7.6 105.4 6.6 106.5 6.6 L107.5 6.6 L107.5 13.4 L107.5 13.4 ZM108.7 5.4 L106.6 5.4 C104.5 5.4 102.7 7.1 102.7 10.3 C102.7 12.2 103.6 13.6 105.1 14.3 L102.3 19.7 C102.2 19.9 102.3 20 102.4 20 L103.7 20 C103.8 20 103.9 20 104 19.9 L106.5 14.6 L107.5 14.6 L107.5 19.9 C107.5 20 107.5 20 107.6 20 L108.7 20 C108.9 20 108.9 20 108.9 19.9 L108.9 5.6 C108.9 5.5 108.8 5.4 108.7 5.4 L108.7 5.4 Z" id="Fill-1"/>
                <path d="M115.7 10.2 L114.5 10.2 C114.4 10.2 114.4 10.3 114.4 10.4 L114.4 14.1 L112.2 14.1 L112.2 10.4 C112.2 10.3 112.2 10.2 112.1 10.2 L110.9 10.2 C110.9 10.2 110.8 10.3 110.8 10.4 L110.8 19.9 C110.8 20 110.8 20 110.9 20 L112.1 20 C112.2 20 112.2 20 112.2 19.9 L112.2 15.3 L114.4 15.3 L114.4 19.9 C114.4 20 114.4 20 114.5 20 L115.7 20 C115.8 20 115.8 20 115.8 19.9 L115.8 10.4 C115.8 10.3 115.7 10.2 115.7 10.2 " id="Fill-2"/>
                <path d="M141.9 19.4 L141.8 18.7 C141.8 18.7 141.7 18.7 141.7 18.7 C141.6 18.7 141.1 18.9 140.4 18.9 C139 18.9 138.3 17.5 138.3 15.2 C138.3 13.2 138.8 11.2 139.8 11.2 C140.1 11.2 140.4 11.3 140.9 11.8 C140.9 11.9 141 11.9 141 11.9 C141.1 11.9 141.1 11.8 141.2 11.7 L141.7 10.9 C141.7 10.8 141.8 10.8 141.8 10.7 C141.8 10.6 141.7 10.6 141.6 10.5 C140.8 10.1 140.3 10 139.9 10 C138.1 10 136.8 12.2 136.8 15.6 C136.8 18.6 138.1 20.3 139.9 20.3 C140.7 20.3 141.5 19.9 141.9 19.6 C141.9 19.6 141.9 19.5 141.9 19.4 " id="Fill-3"/>
                <path d="M133.9 14.7 L136.1 10.4 C136.1 10.3 136.1 10.2 136 10.2 L134.9 10.2 C134.6 10.2 134.5 10.4 134.4 10.6 L132.7 14.3 C132.6 14.5 132.5 14.6 132.5 14.7 L132.5 10.4 C132.5 10.3 132.4 10.2 132.3 10.2 L131.1 10.2 C131.1 10.2 131 10.3 131 10.4 L131 19.9 C131 20 131.1 20 131.1 20 L132.3 20 C132.4 20 132.5 20 132.5 19.9 L132.5 15 C132.5 15 132.5 15.1 132.6 15.2 L134.7 19.7 C134.8 20 135 20 135.2 20 L136.4 20 C136.5 20 136.5 20 136.5 19.9 L133.9 14.7 " id="Fill-4"/>
                <path d="M121.2 18.8 L118.5 18.8 C119.5 17.1 119.9 15.2 120 12.8 C120 12.3 120 11.8 120 11.5 L121.2 11.5 L121.2 18.8 L121.2 18.8 ZM123.2 18.8 L123 18.8 C122.7 18.8 122.7 18.7 122.7 18.5 L122.7 10.4 C122.7 10.3 122.6 10.2 122.5 10.2 L118.8 10.2 C118.7 10.2 118.7 10.3 118.7 10.4 L118.7 11.1 C118.7 13.5 118.6 16.5 117.4 18.8 L117 18.8 C116.8 18.8 116.8 18.9 116.8 19 L116.8 21.8 C116.8 21.9 116.9 21.9 116.9 21.9 L117.8 21.9 C118 21.9 118.1 21.8 118.1 21.7 L118.1 20 L122.1 20 L122.1 21.8 C122.1 21.9 122.1 21.9 122.2 21.9 L123.2 21.9 C123.3 21.9 123.4 21.8 123.4 21.7 L123.4 19 C123.4 18.9 123.3 18.8 123.2 18.8 L123.2 18.8 Z" id="Fill-5"/>
                <path d="M126.8 14.3 C126.4 14.3 125.7 14.3 125.7 14.3 C125.7 14.3 125.7 14 125.8 13.7 C125.9 12.1 126.3 11.2 127 11.2 C127.6 11.2 127.9 12.1 128 13.6 C128 13.9 128 14.3 128 14.3 L126.8 14.3 L126.8 14.3 ZM127 10 C125 10 124.1 12.7 124.1 15.6 C124.1 18.5 125.4 20.3 127.2 20.3 C128.1 20.3 128.9 19.9 129.4 19.6 C129.4 19.6 129.4 19.5 129.4 19.4 L129.3 18.8 C129.3 18.7 129.2 18.7 129.1 18.7 C129.1 18.7 128.5 18.9 127.8 18.9 C126.3 18.9 125.7 17.6 125.7 15.9 L125.7 15.4 C125.7 15.4 126.4 15.5 126.8 15.5 L129.5 15.5 L129.5 14.7 C129.5 11.6 128.5 10 127 10 L127 10 Z" id="Fill-6"/>
                <path d="M151.2 9.6 C151.7 9.3 152.1 9.4 152.2 9.8 C152.2 10.3 152 10.8 151.5 11.1 C151.1 11.5 150.7 11.4 150.6 10.9 C150.5 10.5 150.8 9.9 151.2 9.6 L151.2 9.6 ZM155.8 10.2 L155.1 10.2 L155.1 14.8 C155.1 15.6 154.8 16.1 153.8 16.3 L147.4 18.2 C147.4 18.2 146.9 18.3 146.9 17.8 C146.9 17.4 147.4 17.3 147.4 17.3 L147.4 17.3 L153.2 14.9 C153.7 14.6 154.1 13.9 154.1 13.4 L154.1 6.2 C154.1 5 153 5.4 152.8 5.6 C152.5 5.7 146.1 9.5 146.1 9.5 C145.6 9.8 145.2 10.5 145.2 11 L145.2 18.2 C145.2 18.7 145.9 19.4 146.3 19.4 L146.3 19.4 L155.8 19.4 C156.4 19.4 156.8 19 156.8 18.4 L156.8 11.1 C156.8 10.6 156.4 10.2 155.8 10.2 L155.8 10.2 Z" id="Fill-15"/>
            </g>
        </g>
    </g>
</svg>
